<?xml version="1.0" standalone="no"?><!DOCTYPE svg PUBLIC "-//W3C//DTD SVG 1.1//EN" "http://www.w3.org/Graphics/SVG/1.1/DTD/svg11.dtd"><svg t="1509590708582" class="icon" style="" viewBox="0 0 1024 1024" version="1.1" xmlns="http://www.w3.org/2000/svg" p-id="2131" xmlns:xlink="http://www.w3.org/1999/xlink" width="128" height="128"><defs><style type="text/css"></style></defs><path d="M320.853 785.067c0-15.075-5.333-27.947-16-38.613s-23.538-16-38.613-16c-15.075 0-27.947 5.333-38.613 16-10.667 10.667-16 23.538-16 38.613 0 15.075 5.333 27.947 16 38.613 10.667 10.667 23.538 16 38.613 16 15.075 0 27.947-5.333 38.613-16 10.667-10.667 16-23.538 16-38.613v0zM484.693 785.067c0-15.075-5.333-27.947-16-38.613s-23.538-16-38.613-16c-15.075 0-27.947 5.333-38.613 16-10.667 10.667-16 23.538-16 38.613 0 15.075 5.333 27.947 16 38.613 10.667 10.667 23.538 16 38.613 16 15.075 0 27.947-5.333 38.613-16 10.667-10.667 16-23.538 16-38.613v0zM320.853 621.227c0-15.075-5.333-27.947-16-38.613s-23.538-16-38.613-16c-15.075 0-27.947 5.333-38.613 16-10.667 10.667-16 23.538-16 38.613 0 15.075 5.333 27.947 16 38.613 10.667 10.667 23.538 16 38.613 16 15.075 0 27.947-5.333 38.613-16 10.667-10.667 16-23.538 16-38.613v0zM648.533 785.067c0-15.075-5.333-27.947-16-38.613-10.667-10.667-23.538-16-38.613-16-15.075 0-27.947 5.333-38.613 16-10.667 10.667-16 23.538-16 38.613 0 15.075 5.333 27.947 16 38.613 10.667 10.667 23.538 16 38.613 16 15.075 0 27.947-5.333 38.613-16 10.667-10.667 16-23.538 16-38.613v0zM484.693 621.227c0-15.075-5.333-27.947-16-38.613s-23.538-16-38.613-16c-15.075 0-27.947 5.333-38.613 16-10.667 10.667-16 23.538-16 38.613 0 15.075 5.333 27.947 16 38.613 10.667 10.667 23.538 16 38.613 16 15.075 0 27.947-5.333 38.613-16 10.667-10.667 16-23.538 16-38.613v0zM320.853 457.387c0-15.075-5.333-27.947-16-38.613s-23.538-16-38.613-16c-15.075 0-27.947 5.333-38.613 16-10.667 10.667-16 23.538-16 38.613 0 15.075 5.333 27.947 16 38.613 10.667 10.667 23.538 16 38.613 16 15.075 0 27.947-5.333 38.613-16 10.667-10.667 16-23.538 16-38.613v0zM648.533 621.227c0-15.075-5.333-27.947-16-38.613-10.667-10.667-23.538-16-38.613-16-15.075 0-27.947 5.333-38.613 16-10.667 10.667-16 23.538-16 38.613 0 15.075 5.333 27.947 16 38.613 10.667 10.667 23.538 16 38.613 16 15.075 0 27.947-5.333 38.613-16 10.667-10.667 16-23.538 16-38.613v0zM484.693 457.387c0-15.075-5.333-27.947-16-38.613s-23.538-16-38.613-16c-15.075 0-27.947 5.333-38.613 16-10.667 10.667-16 23.538-16 38.613 0 15.075 5.333 27.947 16 38.613 10.667 10.667 23.538 16 38.613 16 15.075 0 27.947-5.333 38.613-16 10.667-10.667 16-23.538 16-38.613v0zM812.373 785.067v-163.84c0-14.791-5.405-27.591-16.213-38.4s-23.609-16.213-38.4-16.213c-14.791 0-27.591 5.405-38.4 16.213-10.809 10.809-16.213 23.609-16.213 38.4v163.84c0 14.791 5.405 27.591 16.213 38.4s23.609 16.213 38.4 16.213c14.791 0 27.591-5.405 38.4-16.213 10.809-10.809 16.213-23.609 16.213-38.4v0zM648.533 457.387c0-15.075-5.333-27.947-16-38.613-10.667-10.667-23.538-16-38.613-16-15.075 0-27.947 5.333-38.613 16-10.667 10.667-16 23.538-16 38.613 0 15.075 5.333 27.947 16 38.613 10.667 10.667 23.538 16 38.613 16 15.075 0 27.947-5.333 38.613-16 10.667-10.667 16-23.538 16-38.613v0zM812.373 320.853v-109.227c0-7.395-2.702-13.795-8.107-19.2-5.405-5.405-11.805-8.107-19.2-8.107h-546.133c-7.395 0-13.795 2.702-19.2 8.107s-8.107 11.805-8.107 19.2v109.227c0 7.395 2.702 13.795 8.107 19.2s11.805 8.107 19.2 8.107h546.133c7.395 0 13.795-2.702 19.2-8.107s8.107-11.805 8.107-19.2v0zM812.373 457.387c0-15.075-5.333-27.947-16-38.613-10.667-10.667-23.538-16-38.613-16-15.075 0-27.947 5.333-38.613 16-10.667 10.667-16 23.538-16 38.613 0 15.075 5.333 27.947 16 38.613 10.667 10.667 23.538 16 38.613 16 15.075 0 27.947-5.333 38.613-16 10.667-10.667 16-23.538 16-38.613v0zM866.987 184.32v655.36c0 14.791-5.405 27.591-16.213 38.4-10.809 10.809-23.609 16.213-38.4 16.213h-600.747c-14.791 0-27.591-5.405-38.4-16.213-10.809-10.809-16.213-23.609-16.213-38.4v-655.36c0-14.791 5.405-27.591 16.213-38.4 10.809-10.809 23.609-16.213 38.4-16.213h600.747c14.791 0 27.591 5.405 38.4 16.213 10.809 10.809 16.213 23.609 16.213 38.4v0z" p-id="2132" fill="#fcbc04"></path></svg>